<svg xmlns="http://www.w3.org/2000/svg" version="1.1" xmlns:xlink="http://www.w3.org/1999/xlink" xmlns:svgjs="http://svgjs.dev/svgjs" width="1000" height="750" viewBox="0 0 1000 750"><rect width="1000" height="750" fill="#ffffff"></rect><g transform="matrix(0.5191111111111111,0,0,0.5191111111111111,240.44444444444446,83)"><svg viewBox="0 0 320 360" data-background-color="#ffffff" preserveAspectRatio="xMidYMid meet" height="1125" width="1000" xmlns="http://www.w3.org/2000/svg" xmlns:xlink="http://www.w3.org/1999/xlink"><g id="tight-bounds" transform="matrix(1,0,0,1,0,0)"><svg viewBox="0 0 320 360" height="360" width="320"><g><svg></svg></g><g><svg viewBox="0 0 320 360" height="360" width="320"><g><path xmlns="http://www.w3.org/2000/svg" d="M160 42.18c72.417 0 131.943 56.114 137.63 127.014h22.37c-1.137-17.82-5.308-34.882-12.133-51.185-7.962-18.957-19.716-36.398-34.502-50.805-14.787-14.787-31.848-26.161-50.806-34.503-20.095-8.341-40.948-12.891-62.559-12.891-21.611 0-42.464 4.171-62.559 12.512-18.957 7.962-36.398 19.716-50.806 34.503-14.787 14.787-26.161 31.848-34.502 50.805-6.825 16.303-10.995 33.744-12.133 51.185h22.37c5.687-70.521 65.213-126.635 137.63-126.635zM160 318.199c-72.417 0-131.943-56.114-137.63-127.014h-22.37c1.137 17.82 5.308 34.882 12.133 51.185 7.962 18.957 19.716 36.398 34.502 50.805 14.787 14.787 31.848 26.161 50.806 34.503 19.716 8.341 40.569 12.512 62.559 12.512 21.991 0 42.464-4.171 62.559-12.512 18.957-7.962 36.398-19.716 50.806-34.503 14.787-14.787 26.161-31.848 34.502-50.805 6.825-16.303 10.995-33.744 12.133-51.185h-22.37c-5.687 70.9-65.213 127.014-137.63 127.014z" fill="#1781da" fill-rule="nonzero" stroke="none" stroke-width="1" stroke-linecap="butt" stroke-linejoin="miter" stroke-miterlimit="10" stroke-dasharray="" stroke-dashoffset="0" font-family="none" font-weight="none" font-size="none" text-anchor="none" style="mix-blend-mode: normal" data-fill-palette-color="tertiary"></path></g><g transform="matrix(1,0,0,1,58.99755501222492,90)"><svg viewBox="0 0 202.00488997555016 180" height="180" width="202.00488997555016"><g><svg viewBox="0 0 202.00488997555016 180" height="180" width="202.00488997555016"><g><svg viewBox="0 0 202.00488997555016 180" height="180" width="202.00488997555016"><g><svg viewBox="0 0 202.00488997555016 180" height="180" width="202.00488997555016"><g id="textblocktransform"><svg viewBox="0 0 202.00488997555016 180" height="180" width="202.00488997555016" id="textblock"><g><svg viewBox="0 0 202.00488997555016 180" height="180" width="202.00488997555016"><g transform="matrix(1,0,0,1,0,0)"><svg width="202.00488997555016" viewBox="6.550000190734863 -36.900001525878906 45.900001525878906 40.900001525878906" height="180" data-palette-color="#1781da"><path d="M6.55-2.85L6.55-2.85Q6.55-4.65 7.13-7.53 7.7-10.4 8.63-13.73 9.55-17.05 10.75-20.53 11.95-24 13.2-27.05 14.45-30.1 15.65-32.4 16.85-34.7 17.8-35.7L17.8-35.7Q18.3-35.65 19.13-35.33 19.95-35 20.8-34.55 21.65-34.1 22.35-33.58 23.05-33.05 23.25-32.6L23.25-32.6Q21.8-31.3 20.38-28.68 18.95-26.05 17.63-22.7 16.3-19.35 15.15-15.63 14-11.9 13.15-8.4 12.3-4.9 11.83-1.9 11.35 1.1 11.35 2.95L11.35 2.95Q11.35 3.8 11.5 4L11.5 4Q10.4 3.95 9.9 3.63 9.4 3.3 9.13 2.93 8.85 2.55 8.63 2.18 8.4 1.8 7.95 1.6L7.95 1.6Q7.6 1.45 7.35 0.9 7.1 0.35 6.93-0.33 6.75-1 6.65-1.7 6.55-2.4 6.55-2.85ZM22.85-9.8L22.85-9.8Q22.85-13.3 23.67-16.68 24.5-20.05 26-23.08 27.5-26.1 29.57-28.63 31.65-31.15 34.12-33 36.6-34.85 39.4-35.88 42.2-36.9 45.15-36.9L45.15-36.9Q48.6-36.9 50.52-35.45 52.45-34 52.45-31.4L52.45-31.4Q52.45-30.4 52.17-29.35 51.9-28.3 51.37-27.28 50.85-26.25 50.15-25.3 49.45-24.35 48.6-23.65L48.6-23.65Q47.3-23.85 46.35-24.83 45.4-25.8 45.15-27.1L45.15-27.1Q46.9-28.55 47.92-30.13 48.95-31.7 48.95-33L48.95-33Q48.95-35.2 46.2-35.2L46.2-35.2Q45.05-35.2 43.82-34.73 42.6-34.25 41.35-33.4 40.1-32.55 38.92-31.35 37.75-30.15 36.75-28.7L36.75-28.7Q29.8-18.7 29.8-8.25L29.8-8.25Q29.8-4.55 30.95-2.3 32.1-0.05 34 0.35L34 0.35Q36.15-0.15 39.45-2.4 42.75-4.65 46.65-8.25L46.65-8.25Q47.15-7.75 47.25-7.2L47.25-7.2Q45.8-5.3 44.25-3.55 42.7-1.8 41.17-0.35 39.65 1.1 38.17 2.2 36.7 3.3 35.45 3.9L35.45 3.9Q29.25 3.8 26.05 0.35 22.85-3.1 22.85-9.8Z" opacity="1" transform="matrix(1,0,0,1,0,0)" fill="#1781da" class="wordmark-text-0" data-fill-palette-color="primary" id="text-0"></path></svg></g></svg></g></svg></g></svg></g><g></g></svg></g></svg></g></svg></g></svg></g><defs></defs></svg><rect width="320" height="360" fill="none" stroke="none" visibility="hidden"></rect></g></svg></g></svg>