<svg xmlns="http://www.w3.org/2000/svg" version="1.1" xmlns:xlink="http://www.w3.org/1999/xlink" xmlns:svgjs="http://svgjs.dev/svgjs" width="2000" height="1999" viewBox="0 0 2000 1999"><g transform="matrix(1,0,0,1,-0.431486880466764,-0.4312711370263287)"><svg viewBox="0 0 343 343" data-background-color="#000000" preserveAspectRatio="xMidYMid meet" height="1999" width="2000" xmlns="http://www.w3.org/2000/svg" xmlns:xlink="http://www.w3.org/1999/xlink"><g id="tight-bounds" transform="matrix(1,0,0,1,0.0740000000000407,0.07400000000001228)"><svg viewBox="0 0 342.85155851775386 342.85155851775386" height="342.85155851775386" width="342.85155851775386"><g><svg></svg></g><g><svg viewBox="0 0 342.85155851775386 342.85155851775386" height="342.85155851775386" width="342.85155851775386"><g><path d="M0 171.426c0-94.676 76.75-171.426 171.426-171.426 94.676 0 171.426 76.75 171.426 171.426 0 94.676-76.75 171.426-171.426 171.426-94.676 0-171.426-76.75-171.426-171.426zM171.426 328.326c86.654 0 156.901-70.247 156.9-156.9 0-86.654-70.247-156.901-156.9-156.901-86.654 0-156.901 70.247-156.901 156.901 0 86.654 70.247 156.901 156.901 156.9z" data-fill-palette-color="tertiary" fill="#172891" stroke="transparent"></path><ellipse rx="164.56874808852186" ry="164.56874808852186" cx="171.42577925887693" cy="171.42577925887693" fill="#172891" stroke="transparent" stroke-width="0" fill-opacity="1" data-fill-palette-color="tertiary"></ellipse></g><g transform="matrix(1,0,0,1,64.84655864529837,90.8926041323246)"><svg viewBox="0 0 213.1584412271571 161.06635025310464" height="161.06635025310464" width="213.1584412271571"><g><svg viewBox="0 0 213.1584412271571 161.06635025310464" height="161.06635025310464" width="213.1584412271571"><g><svg viewBox="0 0 213.1584412271571 161.06635025310464" height="161.06635025310464" width="213.1584412271571"><g><svg viewBox="0 0 213.1584412271571 161.06635025310464" height="161.06635025310464" width="213.1584412271571"><g id="textblocktransform"><svg viewBox="0 0 213.1584412271571 161.06635025310464" height="161.06635025310464" width="213.1584412271571" id="textblock"><g><svg viewBox="0 0 213.1584412271571 161.06635025310464" height="161.06635025310464" width="213.1584412271571"><g transform="matrix(1,0,0,1,0,0)"><svg width="213.1584412271571" viewBox="-0.9 -35.95 53.4 40.35" height="161.06635025310464" data-palette-color="#ffffff"><path d="M-0.9 4.4L-0.9 4.4Q-0.7 2.25 0.5 1.28 1.7 0.3 3.6 0 5.5-0.3 7.7-0.3L7.7-0.3Q8.6-2.2 9.43-4.88 10.25-7.55 11.03-10.6 11.8-13.65 12.53-16.82 13.25-20 13.9-22.98 14.55-25.95 15.15-28.4 15.75-30.85 16.3-32.45L16.3-32.45Q13.75-32.4 11.78-32.25 9.8-32.1 8.05-31.85 6.3-31.6 4.45-31.25L4.45-31.25Q5-33.75 7.6-34.85 10.2-35.95 15.55-35.95L15.55-35.95Q18.2-35.95 21.05-35.75 23.9-35.55 26.3-35.3 28.7-35.05 30.05-34.85L30.05-34.85Q28.35-33.25 26.85-32.88 25.35-32.5 24.25-32.5L24.25-32.5Q22.6-32.5 21.33-32.5 20.05-32.5 18.85-32.45L18.85-32.45Q18.5-30.75 18.07-28.3 17.65-25.85 17.13-23.05 16.6-20.25 16.1-17.45 15.6-14.65 15.1-12.23 14.6-9.8 14.2-8.2L14.2-8.2Q13.55-5.6 12.65-3.45 11.75-1.3 10.6-0.2L10.6-0.2Q13.25 0 15.95 0.3 18.65 0.6 21.9 0.7L21.9 0.7Q19.9 2.55 18.1 3.03 16.3 3.5 15.15 3.5L15.15 3.5Q11.8 3.5 9.58 3.53 7.35 3.55 5.7 3.63 4.05 3.7 2.53 3.9 1 4.1-0.9 4.4ZM36.15 4.35L36.15 4.35Q32.35 4.35 29.92 2.55 27.5 0.75 26.37-2.1 25.25-4.95 25.25-8L25.25-8Q25.25-11.95 26.45-15.93 27.65-19.9 29.77-23.5 31.9-27.1 34.6-29.9 37.3-32.7 40.37-34.33 43.45-35.95 46.5-35.95L46.5-35.95Q48.7-35.95 50.2-34.93 51.7-33.9 51.7-31.4L51.7-31.4Q51.7-29.9 51.17-28.05 50.65-26.2 49.77-24.48 48.9-22.75 47.8-21.65 46.7-20.55 45.55-20.55L45.55-20.55Q45.05-20.55 44.5-20.9 43.95-21.25 43.5-22.1L43.5-22.1Q44.25-22.95 45.2-24.18 46.15-25.4 47-26.78 47.85-28.15 48.4-29.48 48.95-30.8 48.95-31.8L48.95-31.8Q48.95-32.7 48.45-33.23 47.95-33.75 46.7-33.75L46.7-33.75Q44.5-33.75 42.17-32.1 39.85-30.45 37.7-27.68 35.55-24.9 33.82-21.48 32.1-18.05 31.1-14.43 30.1-10.8 30.1-7.55L30.1-7.55Q30.1-5.15 30.82-2.98 31.55-0.8 33.15 0.58 34.75 1.95 37.35 1.95L37.35 1.95Q40.05 1.95 42.72 0.45 45.4-1.05 47.62-3.5 49.85-5.95 51.2-8.75L51.2-8.75 52.5-7.9Q50.75-4.55 48.3-1.78 45.85 1 42.77 2.68 39.7 4.35 36.15 4.35Z" opacity="1" transform="matrix(1,0,0,1,0,0)" fill="#ffffff" class="wordmark-text-0" data-fill-palette-color="quaternary" id="text-0"></path></svg></g></svg></g></svg></g></svg></g><g></g></svg></g></svg></g></svg></g></svg></g><defs></defs></svg><rect width="342.85155851775386" height="342.85155851775386" fill="none" stroke="none" visibility="hidden"></rect></g></svg></g></svg>